<svg xmlns="http://www.w3.org/2000/svg" width="354.144" height="341.216" viewBox="0 0 354.144 341.216">
  <g id="gato-doacoes" transform="translate(0 -9.345)">
    <path id="Path_23" data-name="Path 23" d="M26.539,143.161a10.365,10.365,0,0,1,11.686-8.809c16.125,2.226,48.889,9.351,75.2,31.774L36.384,224.2C22.07,192.734,24.241,159.275,26.539,143.161Z" transform="translate(-7.668 -38.511)" fill="#7a6154"/>
    <path id="Path_24" data-name="Path 24" d="M49.32,166.713a5.352,5.352,0,0,1,6.424-4.842,140.518,140.518,0,0,1,41.847,15.663L52.857,211.255A140.56,140.56,0,0,1,49.32,166.713Z" transform="translate(-15.075 -46.991)" fill="#fabed5"/>
    <path id="Path_25" data-name="Path 25" d="M396.505,96.34a57.706,57.706,0,0,0,9.206,19.564c15.63,21.7,23.671,38.778-5.737,76.805a13.134,13.134,0,0,0,20.782,16.066c17.876-23.127,25.9-42.784,25.244-61.862-.636-18.462-9.5-33.192-18.978-46.353a31.068,31.068,0,0,1-5.1-10.83L410.555,76.567Z" transform="translate(-122.248 -20.725)" fill="#7a6154"/>
    <path id="Path_26" data-name="Path 26" d="M437.333,34.547c-7.21,3.09-13.427,10.7-15.838,19.378A29.746,29.746,0,0,0,421.173,69a43.446,43.446,0,0,1-25.415,6.61,55.564,55.564,0,0,1,.436-28.706c4.593-16.553,16.1-30.194,30.781-36.5a13.132,13.132,0,1,1,10.358,24.136Z" transform="translate(-121.502)" fill="#f0f0f0"/>
    <path id="Path_27" data-name="Path 27" d="M402.66,244.264a13.125,13.125,0,0,0,18.421-2.354c10.287-13.309,17.306-25.468,21.291-37.029a95.874,95.874,0,0,0-22.352-20.847c-.545,11.147-6.134,24.242-19.719,41.809A13.131,13.131,0,0,0,402.66,244.264Z" transform="translate(-122.573 -53.859)" fill="#6b554a"/>
    <path id="Path_28" data-name="Path 28" d="M384.793,284.948c15.506-45.769-20.008-113.8-108.892-99.776L241.736,188.6,214.6,251.825l15.1,82.118,147.093-4.727Z" transform="translate(-66.164 -53.634)" fill="#7a6154"/>
    <path id="Path_29" data-name="Path 29" d="M286.991,286.073l.535-2.711,1.532-16.129c.332-3.49.5-7.043.5-10.561a110.173,110.173,0,0,0-2.982-25.509,164.157,164.157,0,0,0,7.146-47.7,150.747,150.747,0,0,0-17.825,1.758l-34.164,3.432-27.14,63.22,15.1,82.118,28.957-.93C272.135,319.124,282.341,304.714,286.991,286.073Z" transform="translate(-66.163 -53.683)" fill="#6b554a"/>
    <path id="Path_30" data-name="Path 30" d="M262.123,143.161a10.365,10.365,0,0,0-11.686-8.809c-16.125,2.226-48.889,9.351-75.2,31.774L252.279,224.2C266.592,192.734,264.421,159.275,262.123,143.161Z" transform="translate(-54.028 -38.511)" fill="#7a6154"/>
    <path id="Path_31" data-name="Path 31" d="M257.109,166.713a5.352,5.352,0,0,0-6.424-4.842,140.518,140.518,0,0,0-41.847,15.663l44.734,33.722A140.52,140.52,0,0,0,257.109,166.713Z" transform="translate(-64.388 -46.991)" fill="#fabed5"/>
    <path id="Path_32" data-name="Path 32" d="M149.271,159.9a92.6,92.6,0,0,0-52.131,0L31.534,257.129a92.1,92.1,0,0,0,183.344,0Z" transform="translate(-9.722 -45.263)" fill="#f0f0f0"/>
    <path id="Path_33" data-name="Path 33" d="M186.269,360.086,29.831,380.719l21.444,52.469A36.747,36.747,0,0,0,86.263,458.7H286.276a36.748,36.748,0,0,0,34.988-25.511l21.444-52.469Z" transform="translate(-9.197 -108.139)" fill="#b3ddd1"/>
    <path id="Path_34" data-name="Path 34" d="M79.777,433.188,58.333,380.719,200.52,361.966l-14.251-1.88L29.831,380.719l21.444,52.469A36.747,36.747,0,0,0,86.263,458.7h28.5A36.748,36.748,0,0,1,79.777,433.188Z" transform="translate(-9.197 -108.139)" fill="#80beaf"/>
    <path id="Path_35" data-name="Path 35" d="M344.183,321.067a5.345,5.345,0,0,1-5.217-4.212c-4.1-18.9,1.177-35.925,15.257-49.223a71.885,71.885,0,0,1,22.294-14.2,5.344,5.344,0,1,1,3.665,10.041c-1.573.582-38.658,14.748-30.77,51.12a5.348,5.348,0,0,1-5.228,6.478Z" transform="translate(-104.092 -75.154)" fill="#6b554a"/>
    <path id="Path_36" data-name="Path 36" d="M333.509,330.255H20.634A20.633,20.633,0,0,0,0,350.889H0a20.633,20.633,0,0,0,20.634,20.634H333.51a20.633,20.633,0,0,0,20.634-20.634h0A20.634,20.634,0,0,0,333.509,330.255Z" transform="translate(0 -98.941)" fill="#d9f5ed"/>
    <path id="Path_37" data-name="Path 37" d="M28.5,350.889h0a20.633,20.633,0,0,1,20.634-20.634h-28.5A20.633,20.633,0,0,0,0,350.889H0a20.633,20.633,0,0,0,20.634,20.634h28.5A20.635,20.635,0,0,1,28.5,350.889Z" transform="translate(0 -98.941)" fill="#b3ddd1"/>
    <path id="Path_39" data-name="Path 39" d="M31.343,258.8h-.008q-.417-4.378-.421-8.876A92.133,92.133,0,0,1,96.95,161.566v.136C108.947,209.593,97.8,278.748,31.343,258.8Z" transform="translate(-9.532 -46.932)" fill="#a18576"/>
    <path id="Path_38" data-name="Path 38" d="M265.907,249.922q0,4.49-.421,8.876h-.008c-66.454,19.95-77.6-49.2-65.606-97.1v-.136A92.133,92.133,0,0,1,265.907,249.922Z" transform="translate(-60.324 -46.932)" fill="#a18576"/>
    <path id="Path_40" data-name="Path 40" d="M85.478,269.9a5.344,5.344,0,0,1-5.344-5.344v-9.54a5.344,5.344,0,1,1,10.688,0v9.54A5.344,5.344,0,0,1,85.478,269.9Z" transform="translate(-24.706 -74.097)" fill="#3b484a"/>
    <path id="Path_41" data-name="Path 41" d="M237.893,269.9a5.344,5.344,0,0,1-5.344-5.344v-9.54a5.344,5.344,0,1,1,10.688,0v9.54A5.344,5.344,0,0,1,237.893,269.9Z" transform="translate(-71.698 -74.097)" fill="#3b484a"/>
    <path id="Path_42" data-name="Path 42" d="M174.727,275.96a5.344,5.344,0,0,0-7.541.506,6.27,6.27,0,0,1-9.135,0,5.349,5.349,0,0,0-7.994-.055c-.017.019-.037.035-.053.055a6.27,6.27,0,0,1-9.136,0,5.344,5.344,0,0,0-8.047,7.034,16.7,16.7,0,0,0,12.616,5.628,16.994,16.994,0,0,0,8.591-2.308,17,17,0,0,0,8.591,2.308,16.709,16.709,0,0,0,12.616-5.628A5.346,5.346,0,0,0,174.727,275.96Z" transform="translate(-40.543 -81.794)" fill="#3b484a"/>
  </g>
</svg>
