<svg id="facebook" xmlns="http://www.w3.org/2000/svg" width="40" height="40" viewBox="0 0 40 40">
  <g id="Group_11" data-name="Group 11">
    <path id="Path_54" data-name="Path 54" d="M35.313,0H4.688A4.693,4.693,0,0,0,0,4.688V35.313A4.693,4.693,0,0,0,4.688,40H35.313A4.693,4.693,0,0,0,40,35.313V4.688A4.693,4.693,0,0,0,35.313,0Zm1.562,35.313a1.564,1.564,0,0,1-1.562,1.562H26.406V24.141h4.827l.8-4.844H26.406V15.938a2.3,2.3,0,0,1,2.344-2.344h3.2V8.75h-3.2a7.186,7.186,0,0,0-7.186,7.2V19.3H16.875v4.844h4.689V36.875H4.688a1.564,1.564,0,0,1-1.562-1.562V4.688A1.564,1.564,0,0,1,4.688,3.125H35.313a1.564,1.564,0,0,1,1.562,1.562Z" fill="#fff"/>
  </g>
</svg>
