<svg id="logo" xmlns="http://www.w3.org/2000/svg" width="499.691" height="188.755" viewBox="0 0 499.691 188.755">
  <path id="Path_5" data-name="Path 5" d="M130.645,1.379a6.109,6.109,0,0,1,9.961,4.741V87.966l-67.192-39.7Z" transform="translate(30.429 0)" fill="#ffc850"/>
  <path id="Path_6" data-name="Path 6" d="M128.218,78,87.307,53.822l34.087-38.43a3.9,3.9,0,0,1,6.824,2.591Z" transform="translate(36.709 6.36)" fill="#ebaf4b"/>
  <path id="Path_7" data-name="Path 7" d="M20.269,1.379a6.108,6.108,0,0,0-9.96,4.741V87.966L77.5,48.262Z" transform="translate(1.909 0)" fill="#ffc850"/>
  <path id="Path_8" data-name="Path 8" d="M14.516,78,55.427,53.822,21.34,15.393a3.9,3.9,0,0,0-6.824,2.591Z" transform="translate(3.81 6.36)" fill="#ebaf4b"/>
  <ellipse id="Ellipse_4" data-name="Ellipse 4" cx="85.518" cy="80.936" rx="85.518" ry="80.936" transform="translate(6.108 26.883)" fill="#ffdc64"/>
  <path id="Path_9" data-name="Path 9" d="M81.019,110.867v6.108A12.217,12.217,0,0,1,68.8,129.192h0a12.217,12.217,0,0,1-12.217-12.217v-6.108L68.8,104.758Z" transform="translate(22.824 47.346)" fill="#ff8087"/>
  <path id="Path_10" data-name="Path 10" d="M74.924,87.309H61.435a3.463,3.463,0,0,0-2.694,5.641l6.745,8.344a3.464,3.464,0,0,0,5.387,0l6.745-8.344A3.464,3.464,0,0,0,74.924,87.309Z" transform="translate(23.447 39.46)" fill="#5d5360"/>
  <g id="Group_8" data-name="Group 8" transform="translate(122.55 129.876)">
    <path id="Path_11" data-name="Path 11" d="M137.834,117.843a3.043,3.043,0,0,1-1.406-.344c-18.467-9.6-47.37-15.308-47.661-15.365a3.054,3.054,0,0,1,1.169-6c1.217.237,30.051,5.927,49.31,15.941a3.054,3.054,0,0,1-1.412,5.764Z" transform="translate(-86.297 -86.452)" fill="#e1a546"/>
    <path id="Path_12" data-name="Path 12" d="M142.343,99.462a3.052,3.052,0,0,1-.795-.106c-17.119-4.6-48.247-3.728-48.554-3.715a3.054,3.054,0,1,1-.185-6.105c1.312-.042,32.345-.913,50.326,3.921a3.055,3.055,0,0,1-.792,6.005Z" transform="translate(-84.693 -89.449)" fill="#e1a546"/>
  </g>
  <path id="Path_13" data-name="Path 13" d="M113,173.947c-47.23,0-85.517-36.236-85.517-80.936,0-32.824,20.658-61.063,50.329-73.762C37.149,25.5,6.1,58.871,6.1,99.119c0,44.7,38.287,80.936,85.517,80.936a89.26,89.26,0,0,0,35.188-7.174A90.819,90.819,0,0,1,113,173.947Z" transform="translate(0.007 8.7)" fill="#ffc850"/>
  <g id="Group_9" data-name="Group 9" transform="translate(0 129.878)">
    <path id="Path_14" data-name="Path 14" d="M9.159,117.843a3.054,3.054,0,0,1-1.412-5.764c19.259-10.014,48.093-15.7,49.31-15.941a3.054,3.054,0,0,1,1.169,6c-.291.057-29.194,5.763-47.661,15.365A3.041,3.041,0,0,1,9.159,117.843Z" transform="translate(0.007 -86.454)" fill="#e1a546"/>
    <path id="Path_15" data-name="Path 15" d="M4.948,99.461a3.055,3.055,0,0,1-.792-6.005c17.982-4.835,49.01-3.958,50.326-3.921A3.054,3.054,0,0,1,54.3,95.64c-.313-.01-31.446-.887-48.554,3.715A3.057,3.057,0,0,1,4.948,99.461Z" transform="translate(-1.894 -89.45)" fill="#e1a546"/>
  </g>
  <path id="Path_16" data-name="Path 16" d="M44.137,90.176h0a10.721,10.721,0,0,1-10.69-10.69V73.378a10.721,10.721,0,0,1,10.69-10.69h0a10.721,10.721,0,0,1,10.69,10.69v6.108A10.721,10.721,0,0,1,44.137,90.176Z" transform="translate(12.366 28.332)" fill="#4b3f4e"/>
  <path id="Path_17" data-name="Path 17" d="M41.285,62.688a10.432,10.432,0,0,0-1.527.155V77.959a6.108,6.108,0,1,0,12.217,0V73.378A10.721,10.721,0,0,0,41.285,62.688Z" transform="translate(15.218 28.332)" fill="#5d5360"/>
  <circle id="Ellipse_5" data-name="Ellipse 5" cx="4.581" cy="4.581" r="4.581" transform="translate(51.923 94.076)" fill="#fff"/>
  <path id="Path_18" data-name="Path 18" d="M92.517,90.176h0a10.721,10.721,0,0,1-10.69-10.69V73.378a10.721,10.721,0,0,1,10.69-10.69h0a10.721,10.721,0,0,1,10.69,10.69v6.108A10.721,10.721,0,0,1,92.517,90.176Z" transform="translate(34.232 28.332)" fill="#4b3f4e"/>
  <path id="Path_19" data-name="Path 19" d="M89.665,62.688a10.432,10.432,0,0,0-1.527.155V77.959a6.108,6.108,0,1,0,12.217,0V73.378A10.721,10.721,0,0,0,89.665,62.688Z" transform="translate(37.084 28.332)" fill="#5d5360"/>
  <circle id="Ellipse_6" data-name="Ellipse 6" cx="4.581" cy="4.581" r="4.581" transform="translate(122.167 94.076)" fill="#fff"/>
  <path id="Path_20" data-name="Path 20" d="M70.542,101.424,63.8,88.073a6.746,6.746,0,0,1-.284-.765H61.435a3.464,3.464,0,0,0-2.694,5.641l6.745,8.344a3.426,3.426,0,0,0,5.111.216C70.58,101.478,70.559,101.457,70.542,101.424Z" transform="translate(23.447 39.46)" fill="#4b3f4e"/>
  <path id="Path_21" data-name="Path 21" d="M68.8,104.758l-12.217,6.108v6.108a12.166,12.166,0,0,0,.354,2.8,27.521,27.521,0,0,0,8.808-2.637v2.887a3.054,3.054,0,0,0,6.109,0v-2.887a27.517,27.517,0,0,0,8.808,2.637,12.169,12.169,0,0,0,.354-2.8v-6.108Z" transform="translate(22.824 47.346)" fill="#e6646e"/>
  <path id="Path_22" data-name="Path 22" d="M89.778,114.432a21.244,21.244,0,0,1-12.038-3.714,5.85,5.85,0,0,0-6.468,0,21.329,21.329,0,0,1-26.293-1.761,3.055,3.055,0,0,1,4.08-4.549,15.534,15.534,0,0,0,18.767,1.266,11.924,11.924,0,0,1,13.361,0,15.548,15.548,0,0,0,18.77-1.265,3.054,3.054,0,0,1,4.077,4.549A21.334,21.334,0,0,1,89.778,114.432Z" transform="translate(17.12 46.835)" fill="#ebaf4b"/>
  <text id="ONG_GATOS_FELIZES" data-name="ONG 
GATOS FELIZES" transform="translate(194.691 70)" fill="#ffc850" font-size="36" font-family="Arial-BoldMT, Arial" font-weight="700" letter-spacing="0.05em"><tspan x="0" y="0">ONG </tspan><tspan x="0" y="50">GATOS FELIZES</tspan></text>
</svg>
