<svg xmlns="http://www.w3.org/2000/svg" width="60" height="60" viewBox="0 0 60 60">
  <g id="facebook-footer" transform="translate(236 3)">
    <g id="Group_11" data-name="Group 11">
      <path id="Path_54" data-name="Path 54" d="M52.969,0H7.031A7.039,7.039,0,0,0,0,7.031V52.969A7.039,7.039,0,0,0,7.031,60H52.969A7.039,7.039,0,0,0,60,52.969V7.031A7.039,7.039,0,0,0,52.969,0Zm2.344,52.969a2.346,2.346,0,0,1-2.344,2.344H39.609v-19.1H46.85l1.2-7.266H39.609V23.906a3.456,3.456,0,0,1,3.516-3.516h4.8V13.125h-4.8a10.779,10.779,0,0,0-10.779,10.8v5.019H25.313v7.266h7.034v19.1H7.031a2.346,2.346,0,0,1-2.344-2.344V7.031A2.346,2.346,0,0,1,7.031,4.688H52.969a2.346,2.346,0,0,1,2.344,2.344Z" transform="translate(-236 -3)" fill="#222"/>
    </g>
  </g>
</svg>
