<svg xmlns="http://www.w3.org/2000/svg" width="100" height="100" viewBox="0 0 100 100">
  <path id="face-cont-hover" d="M88.281,0H11.719A11.732,11.732,0,0,0,0,11.719V88.281A11.732,11.732,0,0,0,11.719,100H88.281A11.732,11.732,0,0,0,100,88.281V11.719A11.732,11.732,0,0,0,88.281,0Zm3.906,88.281a3.911,3.911,0,0,1-3.906,3.906H66.016V60.352H78.084l1.994-12.109H66.016v-8.4a5.761,5.761,0,0,1,5.859-5.859h8.008V21.875H71.875a17.966,17.966,0,0,0-17.964,18v8.364H42.188V60.352H53.911V92.188H11.719a3.911,3.911,0,0,1-3.906-3.906V11.719a3.911,3.911,0,0,1,3.906-3.906H88.281a3.911,3.911,0,0,1,3.906,3.906Z" fill="#bc6e3e"/>
</svg>
