<svg id="_037---Check-Temperature" data-name="037---Check-Temperature" xmlns="http://www.w3.org/2000/svg" width="159.997" height="154.473" viewBox="0 0 159.997 154.473">
  <path id="Shape" d="M46.762,45.815,5.191,63.939A103.325,103.325,0,0,1,11.535,3.195,5.517,5.517,0,0,1,15.425.05C33.521,14.2,46.762,40.132,46.762,40.132Z" transform="translate(5.651 0.081)" fill="#f5b994"/>
  <path id="Shape-2" data-name="Shape" d="M80.654,64.049,39,40.1C39.359,38.973,52.765,13.9,70.448.05a5.517,5.517,0,0,1,3.89,3.145,103.253,103.253,0,0,1,6.317,60.854Z" transform="translate(68.584 0.081)" fill="#f5b994"/>
  <g id="Group_10" data-name="Group 10">
    <path id="Shape-3" data-name="Shape" d="M52.825,37.457,35.226,45.9l-1.71-5.683S25.736,14.285,7.64.133A5.418,5.418,0,0,1,10.592.3c22.51,7.669,33.6,21.075,38.592,29.489.3.469.552.938.8,1.379a36.093,36.093,0,0,1,2.841,6.29Z" transform="translate(13.435 -0.003)" fill="#3f5c6c"/>
    <path id="Shape-4" data-name="Shape" d="M76.884.133C59.2,13.982,51.367,39.057,51.009,40.188L35.34,29.788C40.333,21.374,51.422,7.968,73.932.3A5.418,5.418,0,0,1,76.884.133Z" transform="translate(62.148 -0.003)" fill="#3f5c6c"/>
    <path id="Shape-5" data-name="Shape" d="M45.627,18.795C19.31,32.069,0,59.655,0,59.655c0,13.793,10.1,77.24,80.054,77.24S160,73.447,160,59.655c0,0-19.31-27.586-45.516-40.854L97.488,12.207a69.968,69.968,0,0,0-34.868,0Z" transform="translate(0 17.578)" fill="#3f5c6c"/>
  </g>
  <path id="Shape-6" data-name="Shape" d="M53.313,58.555c-7.106,0-11.324-.439-13.743-4.27a15.274,15.274,0,0,1-13.793,7.023,2.759,2.759,0,1,1,0-5.517c10.91,0,11.034-10.585,11.034-11.034a2.759,2.759,0,1,1,5.517,0A10.621,10.621,0,0,0,53.362,55.791a2.759,2.759,0,0,1,2.759,2.759c0,1.523-1.285.006-2.808.006Z" transform="translate(40.479 73.85)" fill="#2c3e50"/>
  <path id="Shape-7" data-name="Shape" d="M32.018,26.638A17.172,17.172,0,0,1,39.6,41.429c0,9.131-6.179,16.551-13.793,16.551S12.019,50.56,12.019,41.429a18.571,18.571,0,0,1,3.228-10.648Z" transform="translate(21.134 46.838)" fill="#2c3e50"/>
  <path id="Shape-8" data-name="Shape" d="M15.777,53.28a2.759,2.759,0,0,1-.552-5.462l13.793-2.759a2.759,2.759,0,1,1,1.081,5.41L16.307,53.227a2.812,2.812,0,0,1-.53.052Z" transform="translate(22.889 79.125)" fill="#ecf0f1"/>
  <path id="Shape-9" data-name="Shape" d="M30.328,46.517H13.777a2.759,2.759,0,0,1,0-5.517H30.328a2.759,2.759,0,0,1,0,5.517Z" transform="translate(19.376 72.094)" fill="#ecf0f1"/>
  <path id="Shape-10" data-name="Shape" d="M58.31,46.517H41.759a2.759,2.759,0,1,1,0-5.517H58.31a2.759,2.759,0,0,1,0,5.517Z" transform="translate(68.584 72.094)" fill="#ecf0f1"/>
  <path id="Shape-11" data-name="Shape" d="M39.375,41.426a13.985,13.985,0,0,1-.11,1.876A15.15,15.15,0,0,1,12.12,37.895a17.8,17.8,0,0,1,2.9-7.117L31.789,26.64A17.172,17.172,0,0,1,39.375,41.426Z" transform="translate(21.314 46.841)" fill="#35495e"/>
  <path id="Shape-12" data-name="Shape" d="M19.177,36.5a32.924,32.924,0,0,1-5.939-.5,2.759,2.759,0,0,1,1.079-5.412c.185.039,12.491,2.323,19.586-4.761a2.759,2.759,0,1,1,3.9,3.9A26.088,26.088,0,0,1,19.177,36.5Z" transform="translate(19.375 43.932)" fill="#2c3e50"/>
  <ellipse id="Oval" cx="2.5" cy="4" rx="2.5" ry="4" transform="translate(36 83.235)" fill="#ecf0f1"/>
  <path id="Shape-13" data-name="Shape" d="M43.591,26.638a17.172,17.172,0,0,0-7.586,14.791c0,9.131,6.179,16.551,13.793,16.551S63.591,50.56,63.591,41.429a18.571,18.571,0,0,0-3.228-10.648Z" transform="translate(63.303 46.838)" fill="#2c3e50"/>
  <path id="Shape-14" data-name="Shape" d="M36.023,41.426a13.985,13.985,0,0,0,.11,1.876,15.15,15.15,0,0,0,27.144-5.407,17.8,17.8,0,0,0-2.9-7.117L43.609,26.64a17.172,17.172,0,0,0-7.586,14.786Z" transform="translate(63.335 46.841)" fill="#35495e"/>
  <path id="Shape-15" data-name="Shape" d="M56.454,36.5a32.924,32.924,0,0,0,5.939-.5,2.759,2.759,0,0,0-1.079-5.412c-.185.039-12.491,2.323-19.586-4.761a2.759,2.759,0,1,0-3.9,3.9A26.088,26.088,0,0,0,56.454,36.5Z" transform="translate(65.042 43.932)" fill="#2c3e50"/>
  <ellipse id="Oval-2" data-name="Oval" cx="3" cy="4" rx="3" ry="4" transform="translate(102 83.235)" fill="#ecf0f1"/>
  <path id="Shape-16" data-name="Shape" d="M36.052,38s11.034,0,11.034,4.6-8.276,9.194-11.034,9.194-11.034-4.6-11.034-9.194S36.052,38,36.052,38Z" transform="translate(43.996 66.819)" fill="#f5b994"/>
  <path id="Shape-17" data-name="Shape" d="M72.069,53.069a11.034,11.034,0,1,1-22.069,0C50,42.034,61.034,31,61.034,31S72.069,42.034,72.069,53.069Z" transform="translate(37.929 80.509)" fill="#90bae1"/>
  <path id="Shape-18" data-name="Shape" d="M69.06,49.389a9.2,9.2,0,0,1-18.394,0c0-9.2,9.2-18.389,9.2-18.389S69.06,40.192,69.06,49.389Z" transform="translate(39.1 80.509)" fill="#b0d3f0"/>
</svg>
