<svg xmlns="http://www.w3.org/2000/svg" width="99.604" height="99.603" viewBox="0 0 99.604 99.603">
  <g id="insta-cont-hover" transform="translate(-1362.397 -897.397)">
    <path id="Path_63" data-name="Path 63" d="M99.8,29.284A36.389,36.389,0,0,0,97.483,17.2,25.517,25.517,0,0,0,82.906,2.627,36.5,36.5,0,0,0,70.821.312C65.488.059,63.8,0,50.27,0S35.051.059,29.738.292A36.419,36.419,0,0,0,17.653,2.607a24.308,24.308,0,0,0-8.836,5.76,24.522,24.522,0,0,0-5.741,8.814A36.487,36.487,0,0,0,.76,29.264C.507,34.6.449,36.288.449,49.811S.507,65.027.74,70.339A36.387,36.387,0,0,0,3.057,82.423,25.513,25.513,0,0,0,17.633,97a36.507,36.507,0,0,0,12.086,2.315c5.312.234,7.006.292,20.532.292s15.219-.058,20.532-.292A36.4,36.4,0,0,0,82.868,97,25.479,25.479,0,0,0,97.445,82.423,36.511,36.511,0,0,0,99.76,70.339c.233-5.312.292-7,.292-20.528s-.02-15.216-.253-20.528ZM90.828,69.95a27.3,27.3,0,0,1-1.713,9.242,16.524,16.524,0,0,1-9.459,9.457,27.407,27.407,0,0,1-9.244,1.712c-5.255.234-6.83.292-20.123.292s-14.888-.058-20.123-.292a27.3,27.3,0,0,1-9.244-1.712A15.33,15.33,0,0,1,15.2,84.932a15.485,15.485,0,0,1-3.717-5.72A27.4,27.4,0,0,1,9.771,69.97c-.234-5.254-.292-6.83-.292-20.12s.058-14.885.292-20.119a27.282,27.282,0,0,1,1.712-9.242,15.139,15.139,0,0,1,3.737-5.721,15.465,15.465,0,0,1,5.721-3.716A27.426,27.426,0,0,1,30.186,9.34c5.255-.233,6.831-.292,20.123-.292,13.312,0,14.888.059,20.123.292a27.311,27.311,0,0,1,9.244,1.712A15.319,15.319,0,0,1,85.4,14.768a15.482,15.482,0,0,1,3.717,5.721,27.407,27.407,0,0,1,1.713,9.242c.233,5.254.292,6.829.292,20.119s-.059,14.846-.292,20.1Zm0,0" transform="translate(1361.948 897.397)" fill="#bc6e3e"/>
    <path id="Path_64" data-name="Path 64" d="M150.417,124.5a25.458,25.458,0,1,0,25.468,25.458A25.469,25.469,0,0,0,150.417,124.5Zm0,41.972a16.514,16.514,0,1,1,16.52-16.514,16.52,16.52,0,0,1-16.52,16.514Zm0,0" transform="translate(1261.8 797.25)" fill="#bc6e3e"/>
    <path id="Path_65" data-name="Path 65" d="M374.461,94.607a6.005,6.005,0,1,1-6.006-6.005A6.006,6.006,0,0,1,374.461,94.607Zm0,0" transform="translate(1070.348 826.023)" fill="#bc6e3e"/>
  </g>
</svg>
