<svg xmlns="http://www.w3.org/2000/svg" width="60" height="60" viewBox="0 0 60 60">
  <g id="instagram-footer" transform="translate(-0.449 0)">
    <path id="Path_55" data-name="Path 55" d="M60.3,17.64A21.92,21.92,0,0,0,58.9,10.361,15.371,15.371,0,0,0,50.12,1.582,21.988,21.988,0,0,0,42.84.188C39.628.035,38.608,0,30.46,0S21.293.035,18.092.176a21.938,21.938,0,0,0-7.28,1.395A14.643,14.643,0,0,0,5.49,5.04a14.772,14.772,0,0,0-3.458,5.31A21.979,21.979,0,0,0,.636,17.628C.484,20.84.449,21.86.449,30.006s.035,9.166.176,12.366a21.919,21.919,0,0,0,1.4,7.279A15.369,15.369,0,0,0,10.8,58.43a21.991,21.991,0,0,0,7.28,1.395c3.2.141,4.22.176,12.368.176s9.168-.035,12.368-.176A21.927,21.927,0,0,0,50.1,58.43a15.348,15.348,0,0,0,8.781-8.779,21.994,21.994,0,0,0,1.395-7.279c.141-3.2.176-4.22.176-12.366S60.437,20.84,60.3,17.64Zm-5.4,24.5A16.443,16.443,0,0,1,53.86,47.7a9.954,9.954,0,0,1-5.7,5.7,16.51,16.51,0,0,1-5.569,1.031c-3.165.141-4.115.176-12.122.176s-8.968-.035-12.122-.176A16.443,16.443,0,0,1,12.782,53.4a9.234,9.234,0,0,1-3.446-2.239A9.328,9.328,0,0,1,7.1,47.717a16.5,16.5,0,0,1-1.031-5.568c-.141-3.165-.176-4.114-.176-12.12s.035-8.967.176-12.119A16.434,16.434,0,0,1,7.1,12.342,9.119,9.119,0,0,1,9.347,8.9a9.316,9.316,0,0,1,3.446-2.238,16.521,16.521,0,0,1,5.569-1.032c3.165-.141,4.115-.176,12.122-.176s8.968.035,12.122.176a16.452,16.452,0,0,1,5.569,1.032A9.228,9.228,0,0,1,51.621,8.9a9.326,9.326,0,0,1,2.239,3.446,16.51,16.51,0,0,1,1.032,5.568c.141,3.165.176,4.114.176,12.119s-.035,8.943-.176,12.108Zm0,0"/>
    <path id="Path_56" data-name="Path 56" d="M140.291,124.5a15.336,15.336,0,1,0,15.342,15.336A15.343,15.343,0,0,0,140.291,124.5Zm0,25.284a9.948,9.948,0,1,1,9.952-9.948,9.951,9.951,0,0,1-9.952,9.948Zm0,0" transform="translate(-109.83 -109.83)"/>
    <path id="Path_57" data-name="Path 57" d="M369.685,92.219a3.618,3.618,0,1,1-3.618-3.617A3.618,3.618,0,0,1,369.685,92.219Zm0,0" transform="translate(-319.592 -78.224)"/>
  </g>
</svg>
