<svg xmlns="http://www.w3.org/2000/svg" width="40" height="40" viewBox="0 0 40 40">
  <g id="insta-header-hover" transform="translate(-0.449 0)">
    <path id="Path_55" data-name="Path 55" d="M40.347,11.76a14.614,14.614,0,0,0-.93-4.853,10.248,10.248,0,0,0-5.854-5.853A14.659,14.659,0,0,0,28.71.125C26.568.024,25.888,0,20.456,0s-6.112.024-8.245.117a14.626,14.626,0,0,0-4.853.93A9.762,9.762,0,0,0,3.809,3.36,9.848,9.848,0,0,0,1.5,6.9a14.653,14.653,0,0,0-.93,4.852C.472,13.893.449,14.573.449,20s.024,6.111.117,8.244A14.613,14.613,0,0,0,1.5,33.1,10.246,10.246,0,0,0,7.35,38.953a14.661,14.661,0,0,0,4.854.93c2.133.094,2.814.117,8.245.117s6.112-.023,8.245-.117a14.618,14.618,0,0,0,4.853-.93A10.232,10.232,0,0,0,39.4,33.1a14.663,14.663,0,0,0,.93-4.853c.094-2.133.117-2.813.117-8.244s-.008-6.111-.1-8.244Zm-3.6,16.331a10.962,10.962,0,0,1-.688,3.712,6.636,6.636,0,0,1-3.8,3.8,11.007,11.007,0,0,1-3.712.687c-2.11.094-2.743.117-8.081.117s-5.979-.023-8.081-.117A10.962,10.962,0,0,1,8.671,35.6a6.156,6.156,0,0,1-2.3-1.493,6.219,6.219,0,0,1-1.493-2.3A11,11,0,0,1,4.192,28.1c-.094-2.11-.117-2.743-.117-8.08s.023-5.978.117-8.08A10.956,10.956,0,0,1,4.88,8.228a6.08,6.08,0,0,1,1.5-2.3,6.211,6.211,0,0,1,2.3-1.492,11.014,11.014,0,0,1,3.712-.688c2.11-.094,2.743-.117,8.081-.117s5.979.024,8.081.117a10.968,10.968,0,0,1,3.712.688,6.152,6.152,0,0,1,2.3,1.492,6.217,6.217,0,0,1,1.493,2.3,11.006,11.006,0,0,1,.688,3.712c.094,2.11.117,2.743.117,8.08s-.024,5.962-.117,8.072Zm0,0" transform="translate(0)" fill="#bc6e3e"/>
    <path id="Path_56" data-name="Path 56" d="M135.128,124.5a10.175,10.175,0,1,0,10.179,10.175A10.18,10.18,0,0,0,135.128,124.5Zm0,16.776a6.6,6.6,0,1,1,6.6-6.6,6.6,6.6,0,0,1-6.6,6.6Zm0,0" transform="translate(-114.672 -114.671)" fill="#bc6e3e"/>
    <path id="Path_57" data-name="Path 57" d="M367.3,91.025a2.424,2.424,0,1,1-2.424-2.424A2.424,2.424,0,0,1,367.3,91.025Zm0,0" transform="translate(-333.748 -81.688)" fill="#bc6e3e"/>
  </g>
</svg>
