<svg xmlns="http://www.w3.org/2000/svg" width="40.643" height="40.643" viewBox="0 0 40.643 40.643">
  <g id="whatsapp-header-hover" transform="translate(0)">
    <path id="XMLID_469_" d="M100.289,92.492c-.079-.038-3.042-1.5-3.569-1.687a2.049,2.049,0,0,0-.69-.153,1.174,1.174,0,0,0-1,.591c-.3.44-1.192,1.487-1.469,1.8-.036.041-.086.091-.115.091s-.485-.189-.624-.249A15.592,15.592,0,0,1,86.9,87.625a.327.327,0,0,1-.05-.117.956.956,0,0,1,.174-.205c.161-.16.336-.37.505-.574.08-.1.16-.193.239-.284a3.191,3.191,0,0,0,.481-.764l.066-.133a1.382,1.382,0,0,0-.04-1.3c-.07-.14-1.321-3.16-1.454-3.477-.32-.765-.743-1.122-1.33-1.122-.055,0,0,0-.229.01a7.1,7.1,0,0,0-2.464.634,5.157,5.157,0,0,0-1.913,4.387,9.457,9.457,0,0,0,2.05,5.206c.015.02.043.062.084.122A19.3,19.3,0,0,0,91.3,97.194a13.465,13.465,0,0,0,5,1.279h0a7.813,7.813,0,0,0,.814-.048l.145-.014c.991-.088,3.17-1.217,3.665-2.594a4.1,4.1,0,0,0,.234-2.7A1.87,1.87,0,0,0,100.289,92.492Z" transform="translate(-70.216 -69.138)" fill="#bc6e3e"/>
    <path id="XMLID_470_" d="M20.682,0A19.91,19.91,0,0,0,.72,19.812,19.667,19.667,0,0,0,3.457,29.832L.028,39.945a.528.528,0,0,0,.66.672l10.546-3.351A19.994,19.994,0,0,0,40.643,19.812,19.909,19.909,0,0,0,20.682,0Zm0,35.5a15.814,15.814,0,0,1-8.7-2.594.528.528,0,0,0-.449-.062L6.249,34.519l1.705-5.031a.528.528,0,0,0-.074-.481,15.47,15.47,0,0,1-3.01-9.194A15.811,15.811,0,1,1,20.682,35.5Z" transform="translate(0)" fill="#bc6e3e"/>
  </g>
</svg>
