<svg xmlns="http://www.w3.org/2000/svg" width="95.94" height="95.94" viewBox="0 0 95.94 95.94">
  <g id="whatsapp-cont-hover" transform="translate(-1494 -897.397)">
    <path id="XMLID_469_" d="M126.57,109.891c-.186-.089-7.163-3.525-8.4-3.971a4.826,4.826,0,0,0-1.625-.359,2.765,2.765,0,0,0-2.35,1.392c-.7,1.036-2.807,3.5-3.459,4.239-.085.1-.2.213-.271.213s-1.142-.445-1.469-.587c-7.484-3.251-13.165-11.069-13.944-12.387a.77.77,0,0,1-.117-.276,2.249,2.249,0,0,1,.409-.483c.38-.376.792-.872,1.19-1.351.189-.227.378-.455.563-.669a7.514,7.514,0,0,0,1.133-1.8l.156-.314a3.253,3.253,0,0,0-.095-3.062c-.165-.33-3.111-7.44-3.424-8.187-.753-1.8-1.748-2.642-3.131-2.642-.128,0,0,0-.538.023-.655.028-4.224.5-5.8,1.492-1.673,1.055-4.5,4.417-4.5,10.331,0,5.322,3.377,10.348,4.828,12.259.036.048.1.146.2.286,5.553,8.11,12.477,14.121,19.495,16.924,6.757,2.7,9.956,3.011,11.775,3.011h0a18.394,18.394,0,0,0,1.916-.113l.342-.033c2.334-.207,7.463-2.865,8.63-6.107.919-2.554,1.161-5.344.55-6.357A4.4,4.4,0,0,0,126.57,109.891Z" transform="translate(1438.369 842.612)" fill="#bc6e3e"/>
    <path id="XMLID_470_" d="M48.822,0A47,47,0,0,0,1.7,46.769,46.425,46.425,0,0,0,8.16,70.42L.066,94.294a1.246,1.246,0,0,0,1.557,1.587l24.895-7.911a47.2,47.2,0,0,0,69.422-41.2A47,47,0,0,0,48.822,0Zm0,83.79a37.331,37.331,0,0,1-20.539-6.123,1.247,1.247,0,0,0-1.061-.145L14.752,81.486l4.026-11.877a1.246,1.246,0,0,0-.175-1.136,36.518,36.518,0,0,1-7.106-21.7A37.324,37.324,0,1,1,48.822,83.79Z" transform="translate(1494 897.397)" fill="#bc6e3e"/>
  </g>
</svg>
