<svg xmlns="http://www.w3.org/2000/svg" width="60" height="60" viewBox="0 0 60 60">
  <g id="whatsapp-footer" transform="translate(0)">
    <path id="XMLID_469_" d="M109.458,98.562c-.117-.056-4.48-2.2-5.255-2.484a3.018,3.018,0,0,0-1.016-.225,1.729,1.729,0,0,0-1.47.87c-.436.648-1.755,2.19-2.163,2.651-.053.061-.126.133-.169.133s-.714-.278-.919-.367c-4.681-2.033-8.233-6.922-8.72-7.747a.482.482,0,0,1-.073-.172,1.407,1.407,0,0,1,.256-.3c.238-.235.5-.545.744-.845.118-.142.236-.284.352-.418a4.7,4.7,0,0,0,.709-1.125l.1-.2a2.035,2.035,0,0,0-.059-1.915c-.1-.206-1.946-4.653-2.141-5.12-.471-1.127-1.093-1.652-1.958-1.652-.08,0,0,0-.337.014a10.459,10.459,0,0,0-3.628.933c-1.046.66-2.817,2.763-2.817,6.461,0,3.328,2.112,6.471,3.019,7.666.023.03.064.091.124.179,3.473,5.072,7.8,8.831,12.192,10.584,4.225,1.688,6.226,1.883,7.364,1.883h0a11.5,11.5,0,0,0,1.2-.071l.214-.02c1.46-.129,4.668-1.792,5.4-3.819.575-1.6.726-3.342.344-3.975A2.754,2.754,0,0,0,109.458,98.562Z" transform="translate(-65.092 -64.099)"/>
    <path id="XMLID_470_" d="M30.533,0A29.393,29.393,0,0,0,1.063,29.249,29.034,29.034,0,0,0,5.1,44.04L.041,58.971a.779.779,0,0,0,.974.993l15.569-4.947A29.517,29.517,0,0,0,60,29.249,29.392,29.392,0,0,0,30.533,0Zm0,52.4a23.346,23.346,0,0,1-12.845-3.829.78.78,0,0,0-.664-.091l-7.8,2.479,2.518-7.428a.78.78,0,0,0-.109-.71A22.838,22.838,0,0,1,7.19,29.249,23.342,23.342,0,1,1,30.533,52.4Z" transform="translate(0)"/>
  </g>
</svg>
